<mxfile host="Electron" agent="Mozilla/5.0 (Windows NT 10.0; Win64; x64) AppleWebKit/537.36 (KHTML, like Gecko) draw.io/26.1.1 Chrome/132.0.6834.210 Electron/34.3.3 Safari/537.36" version="26.1.1">
  <diagram name="Page-1" id="chUQzAX2jWDJ99c_aO13">
    <mxGraphModel dx="1444" dy="1433" grid="1" gridSize="10" guides="1" tooltips="1" connect="1" arrows="1" fold="1" page="1" pageScale="1" pageWidth="827" pageHeight="1169" math="0" shadow="0">
      <root>
        <mxCell id="0" />
        <mxCell id="1" parent="0" />
        <mxCell id="GGaTdPVEgbu_RgT8ZmOS-1" value="&lt;b&gt;&lt;font style=&quot;font-size: 19px;&quot;&gt;students&lt;br&gt;&lt;/font&gt;&lt;/b&gt;" style="rounded=0;whiteSpace=wrap;html=1;" parent="1" vertex="1">
          <mxGeometry x="353" y="140" width="120" height="60" as="geometry" />
        </mxCell>
        <mxCell id="GGaTdPVEgbu_RgT8ZmOS-2" value="&lt;u&gt;St_id&lt;/u&gt;" style="ellipse;whiteSpace=wrap;html=1;" parent="1" vertex="1">
          <mxGeometry x="200" y="70" width="60" height="32.5" as="geometry" />
        </mxCell>
        <mxCell id="GGaTdPVEgbu_RgT8ZmOS-3" value="" style="endArrow=none;html=1;rounded=0;" parent="1" source="GGaTdPVEgbu_RgT8ZmOS-1" target="GGaTdPVEgbu_RgT8ZmOS-2" edge="1">
          <mxGeometry width="50" height="50" relative="1" as="geometry">
            <mxPoint x="290" y="230" as="sourcePoint" />
            <mxPoint x="340" y="180" as="targetPoint" />
          </mxGeometry>
        </mxCell>
        <mxCell id="GGaTdPVEgbu_RgT8ZmOS-4" value="studentName" style="ellipse;whiteSpace=wrap;html=1;" parent="1" vertex="1">
          <mxGeometry x="280" y="60" width="87" height="35" as="geometry" />
        </mxCell>
        <mxCell id="GGaTdPVEgbu_RgT8ZmOS-5" value="" style="endArrow=none;html=1;rounded=0;" parent="1" source="GGaTdPVEgbu_RgT8ZmOS-1" target="GGaTdPVEgbu_RgT8ZmOS-4" edge="1">
          <mxGeometry width="50" height="50" relative="1" as="geometry">
            <mxPoint x="448" y="110" as="sourcePoint" />
            <mxPoint x="430" y="150" as="targetPoint" />
          </mxGeometry>
        </mxCell>
        <mxCell id="GGaTdPVEgbu_RgT8ZmOS-6" value="St_age" style="ellipse;whiteSpace=wrap;html=1;" parent="1" vertex="1">
          <mxGeometry x="378" y="60" width="70" height="25" as="geometry" />
        </mxCell>
        <mxCell id="GGaTdPVEgbu_RgT8ZmOS-7" value="" style="endArrow=none;html=1;rounded=0;" parent="1" source="GGaTdPVEgbu_RgT8ZmOS-1" target="GGaTdPVEgbu_RgT8ZmOS-6" edge="1">
          <mxGeometry width="50" height="50" relative="1" as="geometry">
            <mxPoint x="504" y="135" as="sourcePoint" />
            <mxPoint x="530" y="145" as="targetPoint" />
          </mxGeometry>
        </mxCell>
        <mxCell id="GGaTdPVEgbu_RgT8ZmOS-8" value="st_address" style="ellipse;whiteSpace=wrap;html=1;" parent="1" vertex="1">
          <mxGeometry x="490" y="70" width="70" height="37.5" as="geometry" />
        </mxCell>
        <mxCell id="GGaTdPVEgbu_RgT8ZmOS-9" value="" style="endArrow=none;html=1;rounded=0;" parent="1" source="GGaTdPVEgbu_RgT8ZmOS-1" target="GGaTdPVEgbu_RgT8ZmOS-8" edge="1">
          <mxGeometry width="50" height="50" relative="1" as="geometry">
            <mxPoint x="535" y="142.5" as="sourcePoint" />
            <mxPoint x="636" y="147.5" as="targetPoint" />
          </mxGeometry>
        </mxCell>
        <mxCell id="GGaTdPVEgbu_RgT8ZmOS-11" value="&lt;b&gt;&lt;font style=&quot;font-size: 19px;&quot;&gt;departments&lt;/font&gt;&lt;/b&gt;" style="rounded=0;whiteSpace=wrap;html=1;" parent="1" vertex="1">
          <mxGeometry x="100" y="420" width="150" height="60" as="geometry" />
        </mxCell>
        <mxCell id="GGaTdPVEgbu_RgT8ZmOS-12" value="&lt;u&gt;dept_id&lt;/u&gt;" style="ellipse;whiteSpace=wrap;html=1;" parent="1" vertex="1">
          <mxGeometry x="10" y="377.5" width="60" height="32.5" as="geometry" />
        </mxCell>
        <mxCell id="GGaTdPVEgbu_RgT8ZmOS-13" value="" style="endArrow=none;html=1;rounded=0;" parent="1" source="GGaTdPVEgbu_RgT8ZmOS-11" target="GGaTdPVEgbu_RgT8ZmOS-12" edge="1">
          <mxGeometry width="50" height="50" relative="1" as="geometry">
            <mxPoint x="183" y="363" as="sourcePoint" />
            <mxPoint x="170" y="400" as="targetPoint" />
          </mxGeometry>
        </mxCell>
        <mxCell id="GGaTdPVEgbu_RgT8ZmOS-14" value="dep_name" style="ellipse;whiteSpace=wrap;html=1;" parent="1" vertex="1">
          <mxGeometry x="29" y="320" width="87" height="35" as="geometry" />
        </mxCell>
        <mxCell id="GGaTdPVEgbu_RgT8ZmOS-15" value="" style="endArrow=none;html=1;rounded=0;" parent="1" source="GGaTdPVEgbu_RgT8ZmOS-11" target="GGaTdPVEgbu_RgT8ZmOS-14" edge="1">
          <mxGeometry width="50" height="50" relative="1" as="geometry">
            <mxPoint x="214" y="360" as="sourcePoint" />
            <mxPoint x="260" y="370" as="targetPoint" />
          </mxGeometry>
        </mxCell>
        <mxCell id="GGaTdPVEgbu_RgT8ZmOS-16" value="&lt;font style=&quot;font-size: 19px;&quot;&gt;&lt;b&gt;Courses&lt;/b&gt;&lt;/font&gt;" style="rounded=0;whiteSpace=wrap;html=1;" parent="1" vertex="1">
          <mxGeometry x="520" y="410" width="120" height="60" as="geometry" />
        </mxCell>
        <mxCell id="GGaTdPVEgbu_RgT8ZmOS-17" value="&lt;u&gt;crs_id&lt;/u&gt;" style="ellipse;whiteSpace=wrap;html=1;" parent="1" vertex="1">
          <mxGeometry x="653.5" y="300" width="60" height="32.5" as="geometry" />
        </mxCell>
        <mxCell id="GGaTdPVEgbu_RgT8ZmOS-18" value="" style="endArrow=none;html=1;rounded=0;" parent="1" source="GGaTdPVEgbu_RgT8ZmOS-16" target="GGaTdPVEgbu_RgT8ZmOS-17" edge="1">
          <mxGeometry width="50" height="50" relative="1" as="geometry">
            <mxPoint x="592" y="357.5" as="sourcePoint" />
            <mxPoint x="630" y="337.5" as="targetPoint" />
          </mxGeometry>
        </mxCell>
        <mxCell id="GGaTdPVEgbu_RgT8ZmOS-19" value="crs_name" style="ellipse;whiteSpace=wrap;html=1;" parent="1" vertex="1">
          <mxGeometry x="690" y="340" width="87" height="35" as="geometry" />
        </mxCell>
        <mxCell id="GGaTdPVEgbu_RgT8ZmOS-20" value="" style="endArrow=none;html=1;rounded=0;" parent="1" source="GGaTdPVEgbu_RgT8ZmOS-16" target="GGaTdPVEgbu_RgT8ZmOS-19" edge="1">
          <mxGeometry width="50" height="50" relative="1" as="geometry">
            <mxPoint x="634" y="357.5" as="sourcePoint" />
            <mxPoint x="720" y="307.5" as="targetPoint" />
          </mxGeometry>
        </mxCell>
        <mxCell id="GGaTdPVEgbu_RgT8ZmOS-21" value="crs_duration" style="ellipse;whiteSpace=wrap;html=1;" parent="1" vertex="1">
          <mxGeometry x="690" y="410" width="87" height="35" as="geometry" />
        </mxCell>
        <mxCell id="GGaTdPVEgbu_RgT8ZmOS-22" value="" style="endArrow=none;html=1;rounded=0;" parent="1" source="GGaTdPVEgbu_RgT8ZmOS-16" target="GGaTdPVEgbu_RgT8ZmOS-21" edge="1">
          <mxGeometry width="50" height="50" relative="1" as="geometry">
            <mxPoint x="601" y="420" as="sourcePoint" />
            <mxPoint x="730" y="317.5" as="targetPoint" />
          </mxGeometry>
        </mxCell>
        <mxCell id="GGaTdPVEgbu_RgT8ZmOS-23" value="crs_Description" style="ellipse;whiteSpace=wrap;html=1;" parent="1" vertex="1">
          <mxGeometry x="670" y="470" width="87" height="35" as="geometry" />
        </mxCell>
        <mxCell id="GGaTdPVEgbu_RgT8ZmOS-24" value="" style="endArrow=none;html=1;rounded=0;" parent="1" source="GGaTdPVEgbu_RgT8ZmOS-16" target="GGaTdPVEgbu_RgT8ZmOS-23" edge="1">
          <mxGeometry width="50" height="50" relative="1" as="geometry">
            <mxPoint x="661" y="570" as="sourcePoint" />
            <mxPoint x="790" y="467.5" as="targetPoint" />
          </mxGeometry>
        </mxCell>
        <mxCell id="GGaTdPVEgbu_RgT8ZmOS-25" value="&lt;font style=&quot;font-size: 19px;&quot;&gt;&lt;b&gt;instructors&lt;/b&gt;&lt;/font&gt;" style="rounded=0;whiteSpace=wrap;html=1;" parent="1" vertex="1">
          <mxGeometry x="98" y="720" width="150" height="60" as="geometry" />
        </mxCell>
        <mxCell id="GGaTdPVEgbu_RgT8ZmOS-26" value="&lt;u&gt;ins_id&lt;/u&gt;" style="ellipse;whiteSpace=wrap;html=1;" parent="1" vertex="1">
          <mxGeometry x="13" y="825" width="60" height="32.5" as="geometry" />
        </mxCell>
        <mxCell id="GGaTdPVEgbu_RgT8ZmOS-27" value="" style="endArrow=none;html=1;rounded=0;" parent="1" source="GGaTdPVEgbu_RgT8ZmOS-25" target="GGaTdPVEgbu_RgT8ZmOS-26" edge="1">
          <mxGeometry width="50" height="50" relative="1" as="geometry">
            <mxPoint x="165" y="902.5" as="sourcePoint" />
            <mxPoint x="203" y="882.5" as="targetPoint" />
          </mxGeometry>
        </mxCell>
        <mxCell id="GGaTdPVEgbu_RgT8ZmOS-28" value="ins_salary" style="ellipse;whiteSpace=wrap;html=1;" parent="1" vertex="1">
          <mxGeometry x="140" y="822.5" width="87" height="35" as="geometry" />
        </mxCell>
        <mxCell id="GGaTdPVEgbu_RgT8ZmOS-29" value="" style="endArrow=none;html=1;rounded=0;" parent="1" source="GGaTdPVEgbu_RgT8ZmOS-25" target="GGaTdPVEgbu_RgT8ZmOS-28" edge="1">
          <mxGeometry width="50" height="50" relative="1" as="geometry">
            <mxPoint x="207" y="902.5" as="sourcePoint" />
            <mxPoint x="293" y="852.5" as="targetPoint" />
          </mxGeometry>
        </mxCell>
        <mxCell id="GGaTdPVEgbu_RgT8ZmOS-30" value="ins_hourRate" style="ellipse;whiteSpace=wrap;html=1;" parent="1" vertex="1">
          <mxGeometry x="260" y="920" width="87" height="35" as="geometry" />
        </mxCell>
        <mxCell id="GGaTdPVEgbu_RgT8ZmOS-31" value="" style="endArrow=none;html=1;rounded=0;" parent="1" source="GGaTdPVEgbu_RgT8ZmOS-25" target="GGaTdPVEgbu_RgT8ZmOS-30" edge="1">
          <mxGeometry width="50" height="50" relative="1" as="geometry">
            <mxPoint x="192" y="790" as="sourcePoint" />
            <mxPoint x="303" y="862.5" as="targetPoint" />
          </mxGeometry>
        </mxCell>
        <mxCell id="GGaTdPVEgbu_RgT8ZmOS-32" value="ins_name" style="ellipse;whiteSpace=wrap;html=1;" parent="1" vertex="1">
          <mxGeometry x="76" y="850" width="87" height="35" as="geometry" />
        </mxCell>
        <mxCell id="GGaTdPVEgbu_RgT8ZmOS-33" value="" style="endArrow=none;html=1;rounded=0;" parent="1" source="GGaTdPVEgbu_RgT8ZmOS-25" target="GGaTdPVEgbu_RgT8ZmOS-32" edge="1">
          <mxGeometry width="50" height="50" relative="1" as="geometry">
            <mxPoint x="202" y="800" as="sourcePoint" />
            <mxPoint x="313" y="872.5" as="targetPoint" />
          </mxGeometry>
        </mxCell>
        <mxCell id="GGaTdPVEgbu_RgT8ZmOS-34" value="ins_bouns" style="ellipse;whiteSpace=wrap;html=1;" parent="1" vertex="1">
          <mxGeometry x="270" y="840" width="87" height="35" as="geometry" />
        </mxCell>
        <mxCell id="GGaTdPVEgbu_RgT8ZmOS-35" value="" style="endArrow=none;html=1;rounded=0;" parent="1" source="GGaTdPVEgbu_RgT8ZmOS-25" target="GGaTdPVEgbu_RgT8ZmOS-34" edge="1">
          <mxGeometry width="50" height="50" relative="1" as="geometry">
            <mxPoint x="212" y="810" as="sourcePoint" />
            <mxPoint x="323" y="882.5" as="targetPoint" />
          </mxGeometry>
        </mxCell>
        <mxCell id="GGaTdPVEgbu_RgT8ZmOS-36" value="ins_address" style="ellipse;whiteSpace=wrap;html=1;" parent="1" vertex="1">
          <mxGeometry x="280" y="790" width="87" height="35" as="geometry" />
        </mxCell>
        <mxCell id="GGaTdPVEgbu_RgT8ZmOS-37" value="" style="endArrow=none;html=1;rounded=0;" parent="1" source="GGaTdPVEgbu_RgT8ZmOS-25" target="GGaTdPVEgbu_RgT8ZmOS-36" edge="1">
          <mxGeometry width="50" height="50" relative="1" as="geometry">
            <mxPoint x="222" y="820" as="sourcePoint" />
            <mxPoint x="333" y="892.5" as="targetPoint" />
          </mxGeometry>
        </mxCell>
        <mxCell id="GGaTdPVEgbu_RgT8ZmOS-38" value="&lt;font style=&quot;font-size: 19px;&quot;&gt;&lt;b&gt;topics&lt;/b&gt;&lt;/font&gt;" style="rounded=0;whiteSpace=wrap;html=1;" parent="1" vertex="1">
          <mxGeometry x="530" y="641.25" width="150" height="60" as="geometry" />
        </mxCell>
        <mxCell id="GGaTdPVEgbu_RgT8ZmOS-39" value="&lt;u&gt;top_id&lt;/u&gt;" style="ellipse;whiteSpace=wrap;html=1;" parent="1" vertex="1">
          <mxGeometry x="500" y="761.25" width="60" height="32.5" as="geometry" />
        </mxCell>
        <mxCell id="GGaTdPVEgbu_RgT8ZmOS-40" value="" style="endArrow=none;html=1;rounded=0;" parent="1" source="GGaTdPVEgbu_RgT8ZmOS-38" target="GGaTdPVEgbu_RgT8ZmOS-39" edge="1">
          <mxGeometry width="50" height="50" relative="1" as="geometry">
            <mxPoint x="587" y="771.25" as="sourcePoint" />
            <mxPoint x="660" y="873.75" as="targetPoint" />
          </mxGeometry>
        </mxCell>
        <mxCell id="GGaTdPVEgbu_RgT8ZmOS-41" value="top_name" style="ellipse;whiteSpace=wrap;html=1;" parent="1" vertex="1">
          <mxGeometry x="580" y="758.75" width="87" height="35" as="geometry" />
        </mxCell>
        <mxCell id="GGaTdPVEgbu_RgT8ZmOS-42" value="" style="endArrow=none;html=1;rounded=0;" parent="1" source="GGaTdPVEgbu_RgT8ZmOS-38" target="GGaTdPVEgbu_RgT8ZmOS-41" edge="1">
          <mxGeometry width="50" height="50" relative="1" as="geometry">
            <mxPoint x="616" y="771.25" as="sourcePoint" />
            <mxPoint x="770" y="863.75" as="targetPoint" />
          </mxGeometry>
        </mxCell>
        <mxCell id="GGaTdPVEgbu_RgT8ZmOS-51" value="" style="shape=link;html=1;rounded=0;" parent="1" source="GGaTdPVEgbu_RgT8ZmOS-43" target="GGaTdPVEgbu_RgT8ZmOS-16" edge="1">
          <mxGeometry relative="1" as="geometry">
            <mxPoint x="300" y="320" as="sourcePoint" />
            <mxPoint x="460" y="320" as="targetPoint" />
          </mxGeometry>
        </mxCell>
        <mxCell id="GGaTdPVEgbu_RgT8ZmOS-53" value="N" style="resizable=0;html=1;whiteSpace=wrap;align=right;verticalAlign=bottom;" parent="GGaTdPVEgbu_RgT8ZmOS-51" connectable="0" vertex="1">
          <mxGeometry x="1" relative="1" as="geometry" />
        </mxCell>
        <mxCell id="GGaTdPVEgbu_RgT8ZmOS-54" value="" style="shape=link;html=1;rounded=0;" parent="1" source="GGaTdPVEgbu_RgT8ZmOS-1" target="GGaTdPVEgbu_RgT8ZmOS-43" edge="1">
          <mxGeometry relative="1" as="geometry">
            <mxPoint x="443" y="200" as="sourcePoint" />
            <mxPoint x="650" y="410" as="targetPoint" />
          </mxGeometry>
        </mxCell>
        <mxCell id="GGaTdPVEgbu_RgT8ZmOS-55" value="M" style="resizable=0;html=1;whiteSpace=wrap;align=left;verticalAlign=bottom;" parent="GGaTdPVEgbu_RgT8ZmOS-54" connectable="0" vertex="1">
          <mxGeometry x="-1" relative="1" as="geometry" />
        </mxCell>
        <mxCell id="GGaTdPVEgbu_RgT8ZmOS-43" value="takes" style="rhombus;whiteSpace=wrap;html=1;" parent="1" vertex="1">
          <mxGeometry x="450" y="260" width="80" height="80" as="geometry" />
        </mxCell>
        <mxCell id="GGaTdPVEgbu_RgT8ZmOS-58" value="" style="endArrow=none;html=1;rounded=0;" parent="1" source="GGaTdPVEgbu_RgT8ZmOS-43" target="GGaTdPVEgbu_RgT8ZmOS-60" edge="1">
          <mxGeometry width="50" height="50" relative="1" as="geometry">
            <mxPoint x="580" y="220" as="sourcePoint" />
            <mxPoint x="501.49778681741213" y="257.59640904498735" as="targetPoint" />
          </mxGeometry>
        </mxCell>
        <mxCell id="GGaTdPVEgbu_RgT8ZmOS-60" value="grade" style="ellipse;whiteSpace=wrap;html=1;align=center;dashed=1;" parent="1" vertex="1">
          <mxGeometry x="520" y="220" width="100" height="40" as="geometry" />
        </mxCell>
        <mxCell id="GGaTdPVEgbu_RgT8ZmOS-61" value="" style="endArrow=none;html=1;rounded=0;" parent="1" edge="1" target="GGaTdPVEgbu_RgT8ZmOS-25" source="wyHi_RyvkWU6LzflW4Dp-1">
          <mxGeometry relative="1" as="geometry">
            <mxPoint x="160" y="600" as="sourcePoint" />
            <mxPoint x="226" y="570" as="targetPoint" />
          </mxGeometry>
        </mxCell>
        <mxCell id="GGaTdPVEgbu_RgT8ZmOS-62" value="N" style="resizable=0;html=1;whiteSpace=wrap;align=right;verticalAlign=bottom;" parent="GGaTdPVEgbu_RgT8ZmOS-61" connectable="0" vertex="1">
          <mxGeometry x="1" relative="1" as="geometry" />
        </mxCell>
        <mxCell id="wyHi_RyvkWU6LzflW4Dp-1" value="located" style="rhombus;whiteSpace=wrap;html=1;" vertex="1" parent="1">
          <mxGeometry x="40" y="550" width="80" height="80" as="geometry" />
        </mxCell>
        <mxCell id="wyHi_RyvkWU6LzflW4Dp-2" value="" style="endArrow=none;html=1;rounded=0;" edge="1" parent="1" source="wyHi_RyvkWU6LzflW4Dp-1" target="GGaTdPVEgbu_RgT8ZmOS-11">
          <mxGeometry relative="1" as="geometry">
            <mxPoint x="360" y="670" as="sourcePoint" />
            <mxPoint x="520" y="670" as="targetPoint" />
          </mxGeometry>
        </mxCell>
        <mxCell id="wyHi_RyvkWU6LzflW4Dp-3" value="1" style="resizable=0;html=1;whiteSpace=wrap;align=right;verticalAlign=bottom;" connectable="0" vertex="1" parent="wyHi_RyvkWU6LzflW4Dp-2">
          <mxGeometry x="1" relative="1" as="geometry" />
        </mxCell>
        <mxCell id="wyHi_RyvkWU6LzflW4Dp-4" value="manage" style="rhombus;whiteSpace=wrap;html=1;" vertex="1" parent="1">
          <mxGeometry x="190" y="561.25" width="80" height="80" as="geometry" />
        </mxCell>
        <mxCell id="wyHi_RyvkWU6LzflW4Dp-5" value="" style="endArrow=none;html=1;rounded=0;" edge="1" parent="1" source="wyHi_RyvkWU6LzflW4Dp-4" target="GGaTdPVEgbu_RgT8ZmOS-11">
          <mxGeometry relative="1" as="geometry">
            <mxPoint x="467" y="681.25" as="sourcePoint" />
            <mxPoint x="282" y="491.25" as="targetPoint" />
          </mxGeometry>
        </mxCell>
        <mxCell id="wyHi_RyvkWU6LzflW4Dp-6" value="1" style="resizable=0;html=1;whiteSpace=wrap;align=right;verticalAlign=bottom;" connectable="0" vertex="1" parent="wyHi_RyvkWU6LzflW4Dp-5">
          <mxGeometry x="1" relative="1" as="geometry" />
        </mxCell>
        <mxCell id="wyHi_RyvkWU6LzflW4Dp-7" value="" style="endArrow=none;html=1;rounded=0;" edge="1" parent="1" source="wyHi_RyvkWU6LzflW4Dp-4" target="GGaTdPVEgbu_RgT8ZmOS-25">
          <mxGeometry relative="1" as="geometry">
            <mxPoint x="229" y="582" as="sourcePoint" />
            <mxPoint x="196" y="490" as="targetPoint" />
          </mxGeometry>
        </mxCell>
        <mxCell id="wyHi_RyvkWU6LzflW4Dp-8" value="1" style="resizable=0;html=1;whiteSpace=wrap;align=right;verticalAlign=bottom;" connectable="0" vertex="1" parent="wyHi_RyvkWU6LzflW4Dp-7">
          <mxGeometry x="1" relative="1" as="geometry" />
        </mxCell>
        <mxCell id="wyHi_RyvkWU6LzflW4Dp-9" value="" style="endArrow=none;html=1;rounded=0;" edge="1" parent="1" target="wyHi_RyvkWU6LzflW4Dp-10" source="wyHi_RyvkWU6LzflW4Dp-4">
          <mxGeometry width="50" height="50" relative="1" as="geometry">
            <mxPoint x="341" y="561.25" as="sourcePoint" />
            <mxPoint x="379.49778681741213" y="535.8464090449874" as="targetPoint" />
          </mxGeometry>
        </mxCell>
        <mxCell id="wyHi_RyvkWU6LzflW4Dp-10" value="hiring Date" style="ellipse;whiteSpace=wrap;html=1;align=center;dashed=1;" vertex="1" parent="1">
          <mxGeometry x="130" y="550" width="75" height="30" as="geometry" />
        </mxCell>
        <mxCell id="wyHi_RyvkWU6LzflW4Dp-11" value="" style="shape=link;html=1;rounded=0;" edge="1" parent="1" source="wyHi_RyvkWU6LzflW4Dp-17" target="GGaTdPVEgbu_RgT8ZmOS-16">
          <mxGeometry relative="1" as="geometry">
            <mxPoint x="360" y="640" as="sourcePoint" />
            <mxPoint x="520" y="640" as="targetPoint" />
          </mxGeometry>
        </mxCell>
        <mxCell id="wyHi_RyvkWU6LzflW4Dp-13" value="N" style="resizable=0;html=1;whiteSpace=wrap;align=right;verticalAlign=bottom;" connectable="0" vertex="1" parent="wyHi_RyvkWU6LzflW4Dp-11">
          <mxGeometry x="1" relative="1" as="geometry" />
        </mxCell>
        <mxCell id="wyHi_RyvkWU6LzflW4Dp-14" value="" style="shape=link;html=1;rounded=0;" edge="1" parent="1" source="GGaTdPVEgbu_RgT8ZmOS-25" target="wyHi_RyvkWU6LzflW4Dp-17">
          <mxGeometry relative="1" as="geometry">
            <mxPoint x="222" y="720" as="sourcePoint" />
            <mxPoint x="631" y="470" as="targetPoint" />
          </mxGeometry>
        </mxCell>
        <mxCell id="wyHi_RyvkWU6LzflW4Dp-15" value="M" style="resizable=0;html=1;whiteSpace=wrap;align=left;verticalAlign=bottom;" connectable="0" vertex="1" parent="wyHi_RyvkWU6LzflW4Dp-14">
          <mxGeometry x="-1" relative="1" as="geometry" />
        </mxCell>
        <mxCell id="wyHi_RyvkWU6LzflW4Dp-17" value="teach" style="shape=rhombus;perimeter=rhombusPerimeter;whiteSpace=wrap;html=1;align=center;" vertex="1" parent="1">
          <mxGeometry x="337" y="571.25" width="120" height="60" as="geometry" />
        </mxCell>
        <mxCell id="wyHi_RyvkWU6LzflW4Dp-18" value="" style="endArrow=none;html=1;rounded=0;" edge="1" parent="1" source="wyHi_RyvkWU6LzflW4Dp-20" target="GGaTdPVEgbu_RgT8ZmOS-16">
          <mxGeometry relative="1" as="geometry">
            <mxPoint x="450" y="565" as="sourcePoint" />
            <mxPoint x="446" y="685" as="targetPoint" />
          </mxGeometry>
        </mxCell>
        <mxCell id="wyHi_RyvkWU6LzflW4Dp-19" value="N" style="resizable=0;html=1;whiteSpace=wrap;align=right;verticalAlign=bottom;" connectable="0" vertex="1" parent="wyHi_RyvkWU6LzflW4Dp-18">
          <mxGeometry x="1" relative="1" as="geometry" />
        </mxCell>
        <mxCell id="wyHi_RyvkWU6LzflW4Dp-20" value="classified" style="rhombus;whiteSpace=wrap;html=1;" vertex="1" parent="1">
          <mxGeometry x="550" y="525" width="80" height="80" as="geometry" />
        </mxCell>
        <mxCell id="wyHi_RyvkWU6LzflW4Dp-21" value="" style="endArrow=none;html=1;rounded=0;" edge="1" parent="1" source="wyHi_RyvkWU6LzflW4Dp-20" target="GGaTdPVEgbu_RgT8ZmOS-38">
          <mxGeometry relative="1" as="geometry">
            <mxPoint x="650" y="635" as="sourcePoint" />
            <mxPoint x="445" y="445" as="targetPoint" />
          </mxGeometry>
        </mxCell>
        <mxCell id="wyHi_RyvkWU6LzflW4Dp-22" value="1" style="resizable=0;html=1;whiteSpace=wrap;align=right;verticalAlign=bottom;" connectable="0" vertex="1" parent="wyHi_RyvkWU6LzflW4Dp-21">
          <mxGeometry x="1" relative="1" as="geometry" />
        </mxCell>
        <mxCell id="wyHi_RyvkWU6LzflW4Dp-23" value="" style="endArrow=none;html=1;rounded=0;" edge="1" parent="1" source="wyHi_RyvkWU6LzflW4Dp-25" target="GGaTdPVEgbu_RgT8ZmOS-11">
          <mxGeometry relative="1" as="geometry">
            <mxPoint x="230" y="270" as="sourcePoint" />
            <mxPoint x="390" y="270" as="targetPoint" />
          </mxGeometry>
        </mxCell>
        <mxCell id="wyHi_RyvkWU6LzflW4Dp-24" value="1" style="resizable=0;html=1;whiteSpace=wrap;align=right;verticalAlign=bottom;" connectable="0" vertex="1" parent="wyHi_RyvkWU6LzflW4Dp-23">
          <mxGeometry x="1" relative="1" as="geometry" />
        </mxCell>
        <mxCell id="wyHi_RyvkWU6LzflW4Dp-25" value="IN" style="shape=rhombus;perimeter=rhombusPerimeter;whiteSpace=wrap;html=1;align=center;" vertex="1" parent="1">
          <mxGeometry x="205" y="286.25" width="120" height="60" as="geometry" />
        </mxCell>
        <mxCell id="wyHi_RyvkWU6LzflW4Dp-26" value="" style="endArrow=none;html=1;rounded=0;" edge="1" parent="1" source="wyHi_RyvkWU6LzflW4Dp-25" target="GGaTdPVEgbu_RgT8ZmOS-1">
          <mxGeometry relative="1" as="geometry">
            <mxPoint x="300" y="390" as="sourcePoint" />
            <mxPoint x="460" y="390" as="targetPoint" />
          </mxGeometry>
        </mxCell>
        <mxCell id="wyHi_RyvkWU6LzflW4Dp-27" value="N" style="resizable=0;html=1;whiteSpace=wrap;align=right;verticalAlign=bottom;" connectable="0" vertex="1" parent="wyHi_RyvkWU6LzflW4Dp-26">
          <mxGeometry x="1" relative="1" as="geometry" />
        </mxCell>
      </root>
    </mxGraphModel>
  </diagram>
</mxfile>
